<svg id="Layer_1" data-name="Layer 1" xmlns="http://www.w3.org/2000/svg" viewBox="0 0 841.89 595.28"><defs><style>.cls-1{fill:#fff;}</style></defs><path class="cls-1" d="M258.94,274.34v13.83h-3.26V275.11c0-4.46-1.92-6.81-5.91-6.81a20.8,20.8,0,0,0-7.73,1.34,11.12,11.12,0,0,1,.72,4.42v14.11H239.5v-13.3c0-4.85-1.82-6.57-6.15-6.57a59.94,59.94,0,0,0-6.72.62v19.25h-3.31v-21.7a66.08,66.08,0,0,1,10.61-1.2c2.83,0,4.95.58,6.39,1.87a26.65,26.65,0,0,1,10-1.87C255.82,265.27,258.94,268.2,258.94,274.34Z"/><path class="cls-1" d="M266.38,258a2.4,2.4,0,1,1,2.4,2.35A2.35,2.35,0,0,1,266.38,258Zm4.08,30.19h-3.31V266h3.31Z"/><path class="cls-1" d="M291.39,268.68a73.2,73.2,0,0,0-9.08.48v19H279V266.62a70.76,70.76,0,0,1,12.39-1.16Z"/><path class="cls-1" d="M317.21,266.47v21.7H314v-2a14,14,0,0,1-8.31,2.69c-6.62,0-11-4.75-11-11.91,0-7,4.32-11.71,11.28-11.71A52.85,52.85,0,0,1,317.21,266.47Zm-19.35,10.61c0,5.33,3.22,9,8.21,9a13.49,13.49,0,0,0,7.88-2.69V268.73a47.61,47.61,0,0,0-7.68-.63C300.79,268.1,297.86,271.8,297.86,277.08Z"/><path class="cls-1" d="M343.18,269a29.71,29.71,0,0,0-6.91-1c-5.62,0-9.32,3.6-9.32,9a8.53,8.53,0,0,0,8.93,9,34.16,34.16,0,0,0,7.68-1.25l.58,2.74a30.65,30.65,0,0,1-8.35,1.39c-7.16,0-12.15-4.7-12.15-11.91s5-11.8,12.43-11.8a25.76,25.76,0,0,1,7.59,1.2Z"/><path class="cls-1" d="M354.31,288.17h-3.26V254.09h3.26Z"/><path class="cls-1" d="M383.4,275.78a15.23,15.23,0,0,1-.19,2.55H364.73c.53,4.56,3.7,7.58,8.59,7.58a31.53,31.53,0,0,0,8.16-1.24l.53,2.68a28.13,28.13,0,0,1-8.78,1.54c-7.59,0-12-4.95-12-11.86,0-7.1,4.8-11.76,11.53-11.76C379,265.27,383.35,269.3,383.4,275.78Zm-18.77,0h15.75c-.05-4.85-3.07-7.78-7.54-7.78C368.09,268,365,271,364.63,275.74Z"/><path class="cls-1" d="M438.27,274.34v13.83H435V275.11c0-4.46-1.92-6.81-5.9-6.81a20.73,20.73,0,0,0-7.73,1.34,11.12,11.12,0,0,1,.72,4.42v14.11h-3.26v-13.3c0-4.85-1.83-6.57-6.15-6.57a59.94,59.94,0,0,0-6.72.62v19.25h-3.31v-21.7a65.81,65.81,0,0,1,10.61-1.2c2.83,0,4.94.58,6.38,1.87a26.69,26.69,0,0,1,10-1.87C435.15,265.27,438.27,268.2,438.27,274.34Z"/><path class="cls-1" d="M467.07,266.47v21.7H463.8v-2a14,14,0,0,1-8.3,2.69c-6.63,0-11-4.75-11-11.91,0-7,4.32-11.71,11.28-11.71A52.92,52.92,0,0,1,467.07,266.47Zm-19.35,10.61c0,5.33,3.22,9,8.21,9a13.47,13.47,0,0,0,7.87-2.69V268.73a47.52,47.52,0,0,0-7.68-.63C450.65,268.1,447.72,271.8,447.72,277.08Z"/><path class="cls-1" d="M498,277c0,6.68-4.42,11.43-11.09,11.43a37.89,37.89,0,0,1-8.26-.67V299h-3.31V266.47a55.5,55.5,0,0,1,11.38-1.2C493.75,265.27,497.93,270,498,277Zm-3.27.1c0-5.28-2.88-9-8.4-9a47.06,47.06,0,0,0-7.68.63V284.9a33.9,33.9,0,0,0,7.87.68C491.55,285.58,494.76,281.93,494.76,277.08Z"/><path class="cls-1" d="M527.35,277c0,6.68-4.41,11.43-11.09,11.43a37.85,37.85,0,0,1-8.25-.67V299H504.7V266.47a55.48,55.48,0,0,1,11.37-1.2C523.08,265.27,527.26,270,527.35,277Zm-3.26.1c0-5.28-2.88-9-8.4-9a47.06,47.06,0,0,0-7.68.63V284.9a33.9,33.9,0,0,0,7.87.68C520.87,285.58,524.09,281.93,524.09,277.08Z"/><path class="cls-1" d="M554.81,275.78a15.23,15.23,0,0,1-.19,2.55H536.14c.52,4.56,3.69,7.58,8.59,7.58a31.53,31.53,0,0,0,8.16-1.24l.53,2.68a28.14,28.14,0,0,1-8.79,1.54c-7.58,0-12-4.95-12-11.86,0-7.1,4.8-11.76,11.52-11.76C550.39,265.27,554.76,269.3,554.81,275.78Zm-18.77,0h15.75c0-4.85-3.08-7.78-7.54-7.78C539.5,268,536.43,271,536,275.74Z"/><path class="cls-1" d="M573.77,268.68a72.94,72.94,0,0,0-9.07.48v19h-3.32V266.62a70.86,70.86,0,0,1,12.39-1.16Z"/><path class="cls-1" d="M409.61,315.82H408l-1.83-6.18-1.52,6.18h-1.75l2.38-10.2H407l2.14,8,5-8h1.72l-1.21,10.2h-1.76l.71-6.18Z"/><path class="cls-1" d="M425.16,308.84l-1.23,7h-1.72l.09-.54a4.37,4.37,0,0,1-2.43.76c-2,0-3.12-1.48-2.76-3.72a4.25,4.25,0,0,1,4.23-3.82A23.88,23.88,0,0,1,425.16,308.84Zm-6.42,3.89a1.64,1.64,0,0,0,1.64,1.86,3.75,3.75,0,0,0,2.17-.77l.66-3.75a14.58,14.58,0,0,0-1.9-.12A2.55,2.55,0,0,0,418.74,312.73Z"/><path class="cls-1" d="M434.3,308.84l-1.23,7a4.53,4.53,0,0,1-4.73,3.79,8.44,8.44,0,0,1-2.47-.45l.54-1.42a11.86,11.86,0,0,0,2.16.33,2.63,2.63,0,0,0,2.74-2.15A16.52,16.52,0,0,1,429,316c-2,0-3.13-1.48-2.77-3.72a4.27,4.27,0,0,1,4.23-3.82A28.47,28.47,0,0,1,434.3,308.84Zm-6.42,3.89c0,1.09.58,1.86,1.62,1.86a11.06,11.06,0,0,0,2.07-.15l.77-4.37a14.82,14.82,0,0,0-1.9-.12A2.54,2.54,0,0,0,427.88,312.73Z"/><path class="cls-1" d="M443.21,311.26l-.82,4.56h-1.72l.72-4.07a1.28,1.28,0,0,0-1.32-1.68,19.82,19.82,0,0,0-2,.12l-1,5.63h-1.72l1.23-7a28.8,28.8,0,0,1,4.14-.34C442.51,308.5,443.49,309.58,443.21,311.26Z"/><path class="cls-1" d="M446.38,315.82h-1.72l1.26-7.1h1.72Zm-.43-9.44a1.13,1.13,0,0,1,1.15-1.15,1.14,1.14,0,1,1,0,2.28A1.12,1.12,0,0,1,446,306.38Z"/><path class="cls-1" d="M454.75,308.72l-.28,1.55h-2.55l-1,5.55h-1.72l1-5.55h-1.72l.27-1.55h1.73l.19-1.15a3.4,3.4,0,0,1,3.43-3,3.69,3.69,0,0,1,1.14.17l-.52,1.45a6.73,6.73,0,0,0-.83-.06c-.72,0-1.32.5-1.5,1.52l-.19,1.09Z"/><path class="cls-1" d="M457.11,319.27h-1.85l2.51-3.89-2.47-6.69h1.88l1.8,4.83,3.12-4.83h2Z"/><path class="cls-1" d="M465.8,315.82h-1.73l1.26-7.1h1.72Zm-.44-9.44a1.13,1.13,0,0,1,1.15-1.15,1.14,1.14,0,1,1,0,2.28A1.12,1.12,0,0,1,465.36,306.38Z"/><path class="cls-1" d="M476,311.26l-.81,4.56H473.5l.72-4.07a1.28,1.28,0,0,0-1.32-1.68c-.63,0-1.3.05-2,.12l-1,5.63h-1.72l1.23-7a28.8,28.8,0,0,1,4.14-.34C475.35,308.5,476.32,309.58,476,311.26Z"/><path class="cls-1" d="M485.65,308.84l-1.23,7a4.52,4.52,0,0,1-4.72,3.79,8.56,8.56,0,0,1-2.48-.45l.54-1.42a12,12,0,0,0,2.16.33,2.64,2.64,0,0,0,2.75-2.15,16.52,16.52,0,0,1-2.31.12c-2,0-3.14-1.48-2.78-3.72a4.27,4.27,0,0,1,4.23-3.82A28.31,28.31,0,0,1,485.65,308.84Zm-6.42,3.89a1.64,1.64,0,0,0,1.62,1.86,11,11,0,0,0,2.07-.15l.78-4.37a15.07,15.07,0,0,0-1.9-.12A2.55,2.55,0,0,0,479.23,312.73Z"/><path class="cls-1" d="M495,315.82a7.09,7.09,0,0,1-1.9.22c-1.71,0-2.49-1-2.16-2.8l.52-3h-1.66l.27-1.55h1.66l.47-2.67H494l-.47,2.67h2.34l-.28,1.55h-2.34l-.5,2.8c-.16.93.11,1.43,1,1.43a8,8,0,0,0,1.38-.12Z"/><path class="cls-1" d="M504.34,311.26l-.81,4.56h-1.72l.72-4.07a1.29,1.29,0,0,0-1.34-1.68,10,10,0,0,0-2,.23l-1,5.52h-1.73l1.88-10.65h1.72l-.61,3.55a13.51,13.51,0,0,1,2.38-.22C503.65,308.5,504.63,309.58,504.34,311.26Z"/><path class="cls-1" d="M513.1,311.62a6.34,6.34,0,0,1-.33,1.3h-5.26c.09,1.1.69,1.49,1.92,1.49A14.08,14.08,0,0,0,512,314l.06,1.5a10.87,10.87,0,0,1-2.91.52c-2.4,0-3.53-1.39-3.47-3.22a4.37,4.37,0,0,1,4.46-4.34C512.17,308.48,513.39,309.73,513.1,311.62Zm-5.43,0h3.86a1.43,1.43,0,0,0-1.56-1.75A2.42,2.42,0,0,0,507.67,311.6Z"/><path class="cls-1" d="M517.48,315.82l1.8-10.2h1.8l-1.51,8.58h5.37l-.29,1.62Z"/><path class="cls-1" d="M528,315.82h-1.73l1.26-7.1h1.73Zm-.44-9.44a1.16,1.16,0,1,1,1.16,1.13A1.13,1.13,0,0,1,527.53,306.38Z"/><path class="cls-1" d="M538.32,308.84l-1.23,7a4.53,4.53,0,0,1-4.73,3.79,8.44,8.44,0,0,1-2.47-.45l.54-1.42a11.86,11.86,0,0,0,2.16.33,2.63,2.63,0,0,0,2.74-2.15A16.52,16.52,0,0,1,533,316c-2,0-3.13-1.48-2.77-3.72a4.27,4.27,0,0,1,4.23-3.82A28.47,28.47,0,0,1,538.32,308.84Zm-6.42,3.89c0,1.09.58,1.86,1.62,1.86a11.06,11.06,0,0,0,2.07-.15l.78-4.37a15.11,15.11,0,0,0-1.91-.12A2.54,2.54,0,0,0,531.9,312.73Z"/><path class="cls-1" d="M547,311.26l-.81,4.56h-1.72l.72-4.07a1.29,1.29,0,0,0-1.34-1.68,10,10,0,0,0-2,.23l-1,5.52h-1.73L541,305.17h1.72l-.61,3.55a13.51,13.51,0,0,1,2.38-.22C546.31,308.5,547.29,309.58,547,311.26Z"/><path class="cls-1" d="M553.47,315.82a7.22,7.22,0,0,1-1.91.22c-1.71,0-2.49-1-2.16-2.8l.53-3h-1.67l.27-1.55h1.67l.46-2.67h1.74l-.46,2.67h2.34l-.29,1.55h-2.34l-.49,2.8c-.17.93.1,1.43,1,1.43a7.89,7.89,0,0,0,1.38-.12Z"/><path class="cls-1" d="M566.44,311.59a4.48,4.48,0,0,1-4.71,4.5,3.08,3.08,0,0,1-3.36-3.23,4.46,4.46,0,0,1,4.71-4.45A3,3,0,0,1,566.44,311.59Zm-1.77.24A1.72,1.72,0,0,0,562.8,310a2.59,2.59,0,0,0-2.66,2.66,1.75,1.75,0,0,0,1.88,1.87A2.59,2.59,0,0,0,564.67,311.83Z"/><path class="cls-1" d="M573.66,308.72l-.29,1.55h-2.55l-1,5.55h-1.73l1-5.55h-1.73l.27-1.55h1.73l.19-1.15a3.4,3.4,0,0,1,3.44-3,3.74,3.74,0,0,1,1.14.17l-.53,1.45a6.56,6.56,0,0,0-.82-.06c-.72,0-1.32.5-1.5,1.52l-.2,1.09Z"/><path class="cls-1" d="M582.09,315.82a7.22,7.22,0,0,1-1.91.22c-1.71,0-2.49-1-2.16-2.8l.53-3h-1.67l.27-1.55h1.67l.46-2.67H581l-.46,2.67h2.34l-.29,1.55h-2.34l-.49,2.8c-.17.93.1,1.43,1,1.43a7.89,7.89,0,0,0,1.38-.12Z"/><path class="cls-1" d="M591.39,311.26l-.81,4.56h-1.73l.72-4.07a1.28,1.28,0,0,0-1.33-1.68,9.92,9.92,0,0,0-2,.23l-1,5.52h-1.72l1.87-10.65h1.73l-.62,3.55a13.62,13.62,0,0,1,2.39-.22C590.7,308.5,591.67,309.58,591.39,311.26Z"/><path class="cls-1" d="M600.15,311.62a7.06,7.06,0,0,1-.33,1.3h-5.27c.09,1.1.69,1.49,1.92,1.49a14,14,0,0,0,2.61-.39l.06,1.5a10.87,10.87,0,0,1-2.91.52c-2.4,0-3.52-1.39-3.46-3.22a4.37,4.37,0,0,1,4.45-4.34C599.22,308.48,600.43,309.73,600.15,311.62Zm-5.43,0h3.85a1.43,1.43,0,0,0-1.56-1.75A2.4,2.4,0,0,0,594.72,311.6Z"/><path class="cls-1" d="M612.27,315.82l-1.2-7.14-3.78,7.14h-1.7l-1.6-10.2h1.89l1,7.42,3.85-7.42h1.55l1.18,7.42,3.72-7.42h1.94L614,315.82Z"/><path class="cls-1" d="M626,311.59a4.48,4.48,0,0,1-4.71,4.5,3.07,3.07,0,0,1-3.36-3.23,4.46,4.46,0,0,1,4.71-4.45A3.05,3.05,0,0,1,626,311.59Zm-1.77.24A1.73,1.73,0,0,0,622.3,310a2.58,2.58,0,0,0-2.65,2.66,1.74,1.74,0,0,0,1.87,1.87A2.59,2.59,0,0,0,624.18,311.83Z"/><path class="cls-1" d="M632.46,310.15a26,26,0,0,0-2.66.1l-1,5.57h-1.72l1.2-6.93a28.07,28.07,0,0,1,4.44-.44Z"/><path class="cls-1" d="M634.89,315.82h-1.74L635,305.17h1.74Z"/><path class="cls-1" d="M644.14,315.67a18.58,18.58,0,0,1-4.09.37,2.75,2.75,0,0,1-2.82-3.07,4.15,4.15,0,0,1,4.29-4.47,10.56,10.56,0,0,1,2.13.19l.61-3.52H646Zm-5.22-2.94a1.65,1.65,0,0,0,1.64,1.86,10.87,10.87,0,0,0,2.07-.15l.75-4.29a8.6,8.6,0,0,0-1.88-.2A2.5,2.5,0,0,0,638.92,312.73Z"/></svg>