<svg id="Layer_1" data-name="Layer 1" xmlns="http://www.w3.org/2000/svg" viewBox="0 0 841.89 595.28"><defs><style>.cls-1{fill:#fff;}</style></defs><path class="cls-1" d="M324.66,279.83v17.28h-4.08V280.79c0-5.58-2.4-8.52-7.38-8.52a26.05,26.05,0,0,0-9.66,1.68,13.93,13.93,0,0,1,.9,5.52v17.64h-4.08V280.49c0-6.06-2.28-8.22-7.68-8.22a75.43,75.43,0,0,0-8.4.78v24.06h-4.14V270a81,81,0,0,1,13.26-1.5c3.54,0,6.18.72,8,2.34a33.23,33.23,0,0,1,12.54-2.34C320.76,268.49,324.66,272.15,324.66,279.83Z"/><path class="cls-1" d="M334,259.37a3,3,0,1,1,3,2.94A2.93,2.93,0,0,1,334,259.37Zm5.1,37.74h-4.14V269.39h4.14Z"/><path class="cls-1" d="M365.22,272.75a90.36,90.36,0,0,0-11.34.6v23.76h-4.14V270.17a88.43,88.43,0,0,1,15.48-1.44Z"/><path class="cls-1" d="M397.5,270v27.12h-4.08v-2.46A17.55,17.55,0,0,1,383,298c-8.28,0-13.8-5.94-13.8-14.88.06-8.76,5.4-14.64,14.1-14.64A65.77,65.77,0,0,1,397.5,270Zm-24.18,13.26c0,6.66,4,11.22,10.26,11.22,3.24,0,6.12-.9,9.84-3.36v-18.3a59.13,59.13,0,0,0-9.6-.78C377,272,373.32,276.65,373.32,283.25Z"/><path class="cls-1" d="M430,273.17a37.52,37.52,0,0,0-8.64-1.26c-7,0-11.64,4.5-11.64,11.28s4.68,11.22,11.16,11.22a42.77,42.77,0,0,0,9.6-1.56l.72,3.42A38,38,0,0,1,420.72,298c-8.94,0-15.18-5.88-15.18-14.88s6.3-14.76,15.54-14.76a32.25,32.25,0,0,1,9.48,1.5Z"/><path class="cls-1" d="M443.88,297.11H439.8v-42.6h4.08Z"/><path class="cls-1" d="M480.24,281.63a18.46,18.46,0,0,1-.24,3.18H456.9c.66,5.7,4.62,9.48,10.74,9.48a39,39,0,0,0,10.2-1.56l.66,3.36a35.36,35.36,0,0,1-11,1.92c-9.48,0-15-6.18-15-14.82,0-8.88,6-14.7,14.4-14.7C474.72,268.49,480.18,273.53,480.24,281.63Zm-23.46-.06h19.68c-.06-6.06-3.84-9.72-9.42-9.72C461.1,271.85,457.26,275.69,456.78,281.57Z"/><path class="cls-1" d="M324.66,327.83v17.28h-4.08V328.79c0-5.58-2.4-8.52-7.38-8.52a26.05,26.05,0,0,0-9.66,1.68,13.93,13.93,0,0,1,.9,5.52v17.64h-4.08V328.49c0-6.06-2.28-8.22-7.68-8.22a75.43,75.43,0,0,0-8.4.78v24.06h-4.14V318a81,81,0,0,1,13.26-1.5c3.54,0,6.18.72,8,2.34a33.23,33.23,0,0,1,12.54-2.34C320.76,316.49,324.66,320.15,324.66,327.83Z"/><path class="cls-1" d="M360.66,318v27.12h-4.08v-2.46A17.55,17.55,0,0,1,346.2,346c-8.28,0-13.8-5.94-13.8-14.88.06-8.76,5.4-14.64,14.1-14.64A65.77,65.77,0,0,1,360.66,318Zm-24.18,13.26c0,6.66,4,11.22,10.26,11.22,3.24,0,6.12-.9,9.84-3.36v-18.3A59.13,59.13,0,0,0,347,320C340.14,320,336.48,324.65,336.48,331.25Z"/><path class="cls-1" d="M399.36,331.13c0,8.34-5.52,14.28-13.86,14.28a47.22,47.22,0,0,1-10.32-.84v14.1H371V318a69.4,69.4,0,0,1,14.22-1.5C394,316.49,399.24,322.37,399.36,331.13Zm-4.08.12c0-6.6-3.6-11.22-10.5-11.22a58.6,58.6,0,0,0-9.6.78V341a43,43,0,0,0,9.84.84C391.26,341.87,395.28,337.31,395.28,331.25Z"/><path class="cls-1" d="M436,331.13c0,8.34-5.52,14.28-13.86,14.28a47.22,47.22,0,0,1-10.32-.84v14.1H407.7V318a69.4,69.4,0,0,1,14.22-1.5C430.68,316.49,435.9,322.37,436,331.13Zm-4.08.12c0-6.6-3.6-11.22-10.5-11.22a58.6,58.6,0,0,0-9.6.78V341a43,43,0,0,0,9.84.84C427.92,341.87,431.94,337.31,431.94,331.25Z"/><path class="cls-1" d="M470.34,329.63a18.46,18.46,0,0,1-.24,3.18H447c.66,5.7,4.62,9.48,10.74,9.48a39,39,0,0,0,10.2-1.56l.66,3.36a35.36,35.36,0,0,1-11,1.92c-9.48,0-15-6.18-15-14.82,0-8.88,6-14.7,14.4-14.7C464.82,316.49,470.28,321.53,470.34,329.63Zm-23.46-.06h19.68c-.06-6.06-3.84-9.72-9.42-9.72C451.2,319.85,447.36,323.69,446.88,329.57Z"/><path class="cls-1" d="M494,320.75a90.36,90.36,0,0,0-11.34.6v23.76h-4.14V318.17A88.43,88.43,0,0,1,494,316.73Z"/></svg>