<svg id="Layer_1" data-name="Layer 1" xmlns="http://www.w3.org/2000/svg" viewBox="0 0 841.89 595.28"><defs><style>.cls-1{fill:#fff;}</style></defs><path class="cls-1" d="M248.05,305v17.28H244V305.91c0-5.58-2.4-8.52-7.38-8.52a26.05,26.05,0,0,0-9.66,1.68,13.93,13.93,0,0,1,.9,5.52v17.64h-4.07V305.61c0-6.06-2.28-8.22-7.68-8.22a75.43,75.43,0,0,0-8.4.78v24.06h-4.14V295.11a81,81,0,0,1,13.26-1.5c3.54,0,6.18.72,8,2.34a33.18,33.18,0,0,1,12.53-2.34C244.15,293.61,248.05,297.27,248.05,305Z"/><path class="cls-1" d="M257.36,284.49a3,3,0,1,1,3,2.94A2.93,2.93,0,0,1,257.36,284.49Zm5.09,37.74h-4.13V294.51h4.13Z"/><path class="cls-1" d="M288.61,297.87a90.36,90.36,0,0,0-11.34.6v23.76h-4.14V295.29a88.43,88.43,0,0,1,15.48-1.44Z"/><path class="cls-1" d="M320.89,295.11v27.12h-4.08v-2.46a17.55,17.55,0,0,1-10.38,3.36c-8.28,0-13.8-5.94-13.8-14.88.06-8.76,5.4-14.64,14.1-14.64A65.77,65.77,0,0,1,320.89,295.11Zm-24.18,13.26c0,6.66,4,11.22,10.26,11.22,3.24,0,6.12-.9,9.84-3.36v-18.3a59.13,59.13,0,0,0-9.6-.78C300.37,297.15,296.71,301.77,296.71,308.37Z"/><path class="cls-1" d="M353.35,298.29a37.52,37.52,0,0,0-8.64-1.26c-7,0-11.64,4.5-11.64,11.28s4.68,11.22,11.16,11.22a42.77,42.77,0,0,0,9.6-1.56l.72,3.42a38,38,0,0,1-10.44,1.74c-8.94,0-15.18-5.88-15.18-14.88s6.3-14.76,15.54-14.76A32.25,32.25,0,0,1,354,295Z"/><path class="cls-1" d="M367.27,322.23h-4.08v-42.6h4.08Z"/><path class="cls-1" d="M403.63,306.75a18.46,18.46,0,0,1-.24,3.18h-23.1c.66,5.7,4.62,9.48,10.74,9.48a39,39,0,0,0,10.2-1.56l.66,3.36a35.36,35.36,0,0,1-11,1.92c-9.48,0-15-6.18-15-14.82,0-8.88,6-14.7,14.4-14.7C398.11,293.61,403.57,298.65,403.63,306.75Zm-23.46-.06h19.68c-.06-6.06-3.84-9.72-9.42-9.72C384.49,297,380.65,300.81,380.17,306.69Z"/><path class="cls-1" d="M472.21,305v17.28h-4.08V305.91c0-5.58-2.4-8.52-7.38-8.52a26.05,26.05,0,0,0-9.66,1.68,13.93,13.93,0,0,1,.9,5.52v17.64h-4.08V305.61c0-6.06-2.28-8.22-7.68-8.22a75.43,75.43,0,0,0-8.4.78v24.06h-4.14V295.11a81,81,0,0,1,13.26-1.5c3.54,0,6.18.72,8,2.34a33.23,33.23,0,0,1,12.54-2.34C468.31,293.61,472.21,297.27,472.21,305Z"/><path class="cls-1" d="M508.21,295.11v27.12h-4.08v-2.46a17.55,17.55,0,0,1-10.38,3.36c-8.28,0-13.8-5.94-13.8-14.88.06-8.76,5.4-14.64,14.1-14.64A65.77,65.77,0,0,1,508.21,295.11ZM484,308.37c0,6.66,4,11.22,10.26,11.22,3.24,0,6.12-.9,9.84-3.36v-18.3a59.13,59.13,0,0,0-9.6-.78C487.69,297.15,484,301.77,484,308.37Z"/><path class="cls-1" d="M546.91,308.25c0,8.34-5.52,14.28-13.86,14.28a47.22,47.22,0,0,1-10.32-.84v14.1h-4.14V295.11a69.4,69.4,0,0,1,14.22-1.5C541.57,293.61,546.79,299.49,546.91,308.25Zm-4.08.12c0-6.6-3.6-11.22-10.5-11.22a58.6,58.6,0,0,0-9.6.78v20.22a43,43,0,0,0,9.84.84C538.81,319,542.83,314.43,542.83,308.37Z"/><path class="cls-1" d="M583.57,308.25c0,8.34-5.52,14.28-13.86,14.28a47.22,47.22,0,0,1-10.32-.84v14.1h-4.14V295.11a69.4,69.4,0,0,1,14.22-1.5C578.23,293.61,583.45,299.49,583.57,308.25Zm-4.08.12c0-6.6-3.6-11.22-10.5-11.22a58.6,58.6,0,0,0-9.6.78v20.22a43,43,0,0,0,9.84.84C575.47,319,579.49,314.43,579.49,308.37Z"/><path class="cls-1" d="M617.89,306.75a18.46,18.46,0,0,1-.24,3.18h-23.1c.66,5.7,4.62,9.48,10.74,9.48a39,39,0,0,0,10.2-1.56l.66,3.36a35.36,35.36,0,0,1-11,1.92c-9.48,0-15-6.18-15-14.82,0-8.88,6-14.7,14.4-14.7C612.37,293.61,617.83,298.65,617.89,306.75Zm-23.46-.06h19.68c-.06-6.06-3.84-9.72-9.42-9.72C598.75,297,594.91,300.81,594.43,306.69Z"/><path class="cls-1" d="M641.59,297.87a90.36,90.36,0,0,0-11.34.6v23.76h-4.14V295.29a88.43,88.43,0,0,1,15.48-1.44Z"/></svg>