<svg id="Layer_1" data-name="Layer 1" xmlns="http://www.w3.org/2000/svg" viewBox="0 0 841.89 595.28"><defs><style>.cls-1{fill:#fff;}</style></defs><path class="cls-1" d="M170.73,299.88v13.83h-3.26V300.65c0-4.46-1.92-6.82-5.91-6.82a20.82,20.82,0,0,0-7.73,1.35,11.12,11.12,0,0,1,.72,4.42v14.11h-3.26v-13.3c0-4.85-1.82-6.58-6.14-6.58a59.88,59.88,0,0,0-6.72.63v19.25h-3.32V292a66.08,66.08,0,0,1,10.61-1.2c2.83,0,4.95.58,6.39,1.87a26.69,26.69,0,0,1,10-1.87C167.61,290.81,170.73,293.74,170.73,299.88Z"/><path class="cls-1" d="M178.17,283.51a2.4,2.4,0,1,1,2.4,2.36A2.35,2.35,0,0,1,178.17,283.51Zm4.08,30.2h-3.31V291.53h3.31Z"/><path class="cls-1" d="M203.18,294.22a71.06,71.06,0,0,0-9.07.48v19h-3.32V292.15A71.73,71.73,0,0,1,203.18,291Z"/><path class="cls-1" d="M229,292v21.7h-3.26v-2a14.1,14.1,0,0,1-8.31,2.69c-6.62,0-11-4.75-11-11.91.05-7,4.32-11.71,11.28-11.71A52.85,52.85,0,0,1,229,292Zm-19.34,10.61c0,5.33,3.21,9,8.2,9a13.49,13.49,0,0,0,7.88-2.69V294.27a46.5,46.5,0,0,0-7.68-.63C212.58,293.64,209.66,297.34,209.66,302.62Z"/><path class="cls-1" d="M255,294.56a29.71,29.71,0,0,0-6.91-1c-5.62,0-9.32,3.6-9.32,9a8.53,8.53,0,0,0,8.93,9,34.16,34.16,0,0,0,7.68-1.25l.58,2.74a30.65,30.65,0,0,1-8.35,1.39c-7.16,0-12.15-4.71-12.15-11.91s5-11.81,12.43-11.81a26.09,26.09,0,0,1,7.59,1.2Z"/><path class="cls-1" d="M266.1,313.71h-3.26V279.63h3.26Z"/><path class="cls-1" d="M295.19,301.32a14.24,14.24,0,0,1-.19,2.55H276.52c.53,4.56,3.7,7.58,8.59,7.58a31.13,31.13,0,0,0,8.16-1.25l.53,2.69a28.08,28.08,0,0,1-8.78,1.54c-7.59,0-12-4.95-12-11.86,0-7.1,4.8-11.76,11.52-11.76C290.78,290.81,295.15,294.84,295.19,301.32Zm-18.77,0h15.75c-.05-4.85-3.07-7.78-7.54-7.78C279.88,293.5,276.81,296.57,276.42,301.28Z"/><path class="cls-1" d="M350.06,299.88v13.83h-3.27V300.65c0-4.46-1.92-6.82-5.9-6.82a20.76,20.76,0,0,0-7.73,1.35,11.12,11.12,0,0,1,.72,4.42v14.11h-3.26v-13.3c0-4.85-1.83-6.58-6.15-6.58a60.1,60.1,0,0,0-6.72.63v19.25h-3.31V292a65.81,65.81,0,0,1,10.61-1.2c2.83,0,4.94.58,6.38,1.87a26.74,26.74,0,0,1,10-1.87C346.94,290.81,350.06,293.74,350.06,299.88Z"/><path class="cls-1" d="M378.86,292v21.7h-3.27v-2a14,14,0,0,1-8.3,2.69c-6.63,0-11-4.75-11-11.91.05-7,4.32-11.71,11.28-11.71A52.92,52.92,0,0,1,378.86,292Zm-19.35,10.61c0,5.33,3.22,9,8.21,9a13.47,13.47,0,0,0,7.87-2.69V294.27a46.41,46.41,0,0,0-7.68-.63C362.44,293.64,359.51,297.34,359.51,302.62Z"/><path class="cls-1" d="M409.82,302.52c0,6.68-4.42,11.43-11.09,11.43a37.94,37.94,0,0,1-8.26-.67v11.28h-3.31V292a55.5,55.5,0,0,1,11.38-1.2C405.54,290.81,409.72,295.52,409.82,302.52Zm-3.27.1c0-5.28-2.88-9-8.4-9a46.07,46.07,0,0,0-7.68.63v16.17a34.46,34.46,0,0,0,7.87.68C403.34,311.12,406.55,307.47,406.55,302.62Z"/><path class="cls-1" d="M439.15,302.52c0,6.68-4.42,11.43-11.09,11.43a37.89,37.89,0,0,1-8.26-.67v11.28h-3.31V292a55.48,55.48,0,0,1,11.37-1.2C434.87,290.81,439.05,295.52,439.15,302.52Zm-3.27.1c0-5.28-2.88-9-8.4-9a46,46,0,0,0-7.68.63v16.17a34.46,34.46,0,0,0,7.87.68C432.66,311.12,435.88,307.47,435.88,302.62Z"/><path class="cls-1" d="M466.6,301.32a15.23,15.23,0,0,1-.19,2.55H447.93c.53,4.56,3.69,7.58,8.59,7.58a31.13,31.13,0,0,0,8.16-1.25l.53,2.69a28.14,28.14,0,0,1-8.79,1.54c-7.58,0-12-4.95-12-11.86,0-7.1,4.8-11.76,11.52-11.76C462.18,290.81,466.55,294.84,466.6,301.32Zm-18.77,0h15.75c-.05-4.85-3.08-7.78-7.54-7.78C451.29,293.5,448.22,296.57,447.83,301.28Z"/><path class="cls-1" d="M485.56,294.22a71.06,71.06,0,0,0-9.07.48v19h-3.32V292.15A71.83,71.83,0,0,1,485.56,291Z"/><path class="cls-1" d="M515.6,309.26H514l-1.83-6.18-1.51,6.18h-1.76l2.39-10.2H513l2.15,8,5-8h1.73l-1.22,10.2h-1.75l.7-6.18Z"/><path class="cls-1" d="M531.15,302.28l-1.22,7H528.2l.09-.54a4.34,4.34,0,0,1-2.43.76c-2,0-3.12-1.48-2.76-3.72a4.26,4.26,0,0,1,4.23-3.82A23.88,23.88,0,0,1,531.15,302.28Zm-6.41,3.89c0,1.09.58,1.86,1.63,1.86a3.8,3.8,0,0,0,2.18-.77l.66-3.75a14.87,14.87,0,0,0-1.91-.12A2.54,2.54,0,0,0,524.74,306.17Z"/><path class="cls-1" d="M540.29,302.28l-1.23,7a4.52,4.52,0,0,1-4.72,3.79,8.56,8.56,0,0,1-2.48-.45l.54-1.42a12,12,0,0,0,2.16.33,2.64,2.64,0,0,0,2.75-2.15,16.59,16.59,0,0,1-2.31.12c-2,0-3.14-1.48-2.78-3.72a4.27,4.27,0,0,1,4.23-3.82A28.47,28.47,0,0,1,540.29,302.28Zm-6.42,3.89a1.64,1.64,0,0,0,1.62,1.86,11,11,0,0,0,2.07-.15l.78-4.37a15.07,15.07,0,0,0-1.9-.12A2.55,2.55,0,0,0,533.87,306.17Z"/><path class="cls-1" d="M549.2,304.7l-.81,4.56h-1.72l.72-4.07a1.29,1.29,0,0,0-1.33-1.68c-.62,0-1.3.05-2,.12l-1,5.63h-1.72l1.23-7a28.93,28.93,0,0,1,4.14-.34C548.51,301.94,549.48,303,549.2,304.7Z"/><path class="cls-1" d="M552.38,309.26h-1.73l1.26-7.1h1.73Zm-.43-9.44a1.13,1.13,0,0,1,1.15-1.15,1.14,1.14,0,1,1,0,2.28A1.12,1.12,0,0,1,552,299.82Z"/><path class="cls-1" d="M560.75,302.16l-.28,1.55h-2.56l-1,5.55h-1.72l1-5.55h-1.72l.26-1.55h1.73l.19-1.15a3.4,3.4,0,0,1,3.44-3,3.69,3.69,0,0,1,1.14.17l-.53,1.45a6.56,6.56,0,0,0-.82-.06c-.72,0-1.32.5-1.5,1.52l-.19,1.09Z"/><path class="cls-1" d="M563.11,312.71h-1.85l2.51-3.89-2.48-6.69h1.89L565,307l3.12-4.83h2Z"/><path class="cls-1" d="M571.79,309.26h-1.73l1.26-7.1h1.73Zm-.43-9.44a1.12,1.12,0,0,1,1.15-1.15,1.14,1.14,0,1,1,0,2.28A1.11,1.11,0,0,1,571.36,299.82Z"/><path class="cls-1" d="M582,304.7l-.81,4.56H579.5l.72-4.07a1.28,1.28,0,0,0-1.32-1.68c-.63,0-1.31.05-2,.12l-1,5.63h-1.73l1.23-7a28.93,28.93,0,0,1,4.14-.34C581.34,301.94,582.32,303,582,304.7Z"/><path class="cls-1" d="M591.65,302.28l-1.23,7a4.53,4.53,0,0,1-4.73,3.79,8.5,8.5,0,0,1-2.47-.45l.54-1.42a12,12,0,0,0,2.16.33,2.63,2.63,0,0,0,2.74-2.15,16.52,16.52,0,0,1-2.31.12c-2,0-3.13-1.48-2.77-3.72a4.27,4.27,0,0,1,4.23-3.82A28.47,28.47,0,0,1,591.65,302.28Zm-6.42,3.89c0,1.09.58,1.86,1.62,1.86a11.06,11.06,0,0,0,2.07-.15l.78-4.37a15.11,15.11,0,0,0-1.91-.12A2.54,2.54,0,0,0,585.23,306.17Z"/><path class="cls-1" d="M601,309.26a7.22,7.22,0,0,1-1.91.22c-1.71,0-2.49-1-2.16-2.8l.53-3h-1.67l.27-1.55h1.67l.46-2.67H600l-.46,2.67h2.34l-.29,1.55h-2.34l-.49,2.8c-.17.93.1,1.43,1,1.43a7.89,7.89,0,0,0,1.38-.12Z"/><path class="cls-1" d="M610.34,304.7l-.81,4.56H607.8l.72-4.07a1.28,1.28,0,0,0-1.33-1.68,9.92,9.92,0,0,0-2,.23l-1,5.52h-1.72l1.87-10.65h1.73l-.62,3.55a13.62,13.62,0,0,1,2.39-.22C609.65,301.94,610.62,303,610.34,304.7Z"/><path class="cls-1" d="M619.1,305.06a7.06,7.06,0,0,1-.33,1.3H613.5c.09,1.1.69,1.49,1.92,1.49a14,14,0,0,0,2.61-.39l.06,1.5a10.87,10.87,0,0,1-2.91.52c-2.4,0-3.52-1.39-3.46-3.22a4.37,4.37,0,0,1,4.45-4.34C618.17,301.92,619.38,303.17,619.1,305.06Zm-5.43,0h3.85a1.43,1.43,0,0,0-1.56-1.75A2.4,2.4,0,0,0,613.67,305Z"/><path class="cls-1" d="M623.48,309.26l1.8-10.2h1.8l-1.52,8.58h5.37l-.28,1.62Z"/><path class="cls-1" d="M634,309.26h-1.72l1.26-7.1h1.72Zm-.43-9.44a1.13,1.13,0,0,1,1.15-1.15,1.14,1.14,0,1,1,0,2.28A1.12,1.12,0,0,1,633.53,299.82Z"/><path class="cls-1" d="M644.31,302.28l-1.23,7a4.52,4.52,0,0,1-4.72,3.79,8.56,8.56,0,0,1-2.48-.45l.54-1.42a12,12,0,0,0,2.16.33,2.64,2.64,0,0,0,2.75-2.15,16.52,16.52,0,0,1-2.31.12c-2,0-3.14-1.48-2.78-3.72a4.27,4.27,0,0,1,4.23-3.82A28.31,28.31,0,0,1,644.31,302.28Zm-6.42,3.89a1.64,1.64,0,0,0,1.62,1.86,11,11,0,0,0,2.07-.15l.78-4.37a15.07,15.07,0,0,0-1.9-.12A2.55,2.55,0,0,0,637.89,306.17Z"/><path class="cls-1" d="M653,304.7l-.81,4.56h-1.73l.72-4.07a1.28,1.28,0,0,0-1.33-1.68,9.92,9.92,0,0,0-2,.23l-1,5.52h-1.72L647,298.61h1.73l-.62,3.55a13.62,13.62,0,0,1,2.39-.22C652.31,301.94,653.28,303,653,304.7Z"/><path class="cls-1" d="M659.46,309.26a7.09,7.09,0,0,1-1.9.22c-1.71,0-2.49-1-2.16-2.8l.52-3h-1.66l.27-1.55h1.66l.47-2.67h1.74l-.47,2.67h2.34l-.28,1.55h-2.34l-.5,2.8c-.16.93.11,1.43,1,1.43a8,8,0,0,0,1.38-.12Z"/><path class="cls-1" d="M672.44,305a4.48,4.48,0,0,1-4.71,4.5,3.07,3.07,0,0,1-3.36-3.23,4.46,4.46,0,0,1,4.71-4.45A3.05,3.05,0,0,1,672.44,305Zm-1.77.24a1.73,1.73,0,0,0-1.88-1.85,2.58,2.58,0,0,0-2.65,2.66A1.74,1.74,0,0,0,668,308,2.59,2.59,0,0,0,670.67,305.27Z"/><path class="cls-1" d="M679.65,302.16l-.28,1.55h-2.55l-1,5.55h-1.72l1-5.55h-1.72l.27-1.55h1.72l.2-1.15a3.4,3.4,0,0,1,3.43-3,3.69,3.69,0,0,1,1.14.17l-.52,1.45a6.73,6.73,0,0,0-.83-.06c-.72,0-1.32.5-1.5,1.52l-.19,1.09Z"/><path class="cls-1" d="M688.08,309.26a7.09,7.09,0,0,1-1.9.22c-1.71,0-2.49-1-2.16-2.8l.52-3h-1.66l.27-1.55h1.66l.47-2.67H687l-.47,2.67h2.34l-.28,1.55h-2.34l-.5,2.8c-.16.93.11,1.43,1,1.43a8,8,0,0,0,1.38-.12Z"/><path class="cls-1" d="M697.38,304.7l-.81,4.56h-1.72l.72-4.07a1.29,1.29,0,0,0-1.34-1.68,10,10,0,0,0-2,.23l-1,5.52h-1.73l1.88-10.65h1.72l-.61,3.55a13.51,13.51,0,0,1,2.38-.22C696.69,301.94,697.67,303,697.38,304.7Z"/><path class="cls-1" d="M706.14,305.06a6.34,6.34,0,0,1-.33,1.3h-5.26c.09,1.1.69,1.49,1.92,1.49a14.08,14.08,0,0,0,2.61-.39l.06,1.5a10.87,10.87,0,0,1-2.91.52c-2.4,0-3.53-1.39-3.47-3.22a4.37,4.37,0,0,1,4.46-4.34C705.21,301.92,706.43,303.17,706.14,305.06Zm-5.43,0h3.86a1.43,1.43,0,0,0-1.56-1.75A2.42,2.42,0,0,0,700.71,305Z"/><path class="cls-1" d="M718.26,309.26l-1.2-7.14-3.78,7.14h-1.69L710,299.06h1.89l1,7.42,3.86-7.42h1.54l1.19,7.42,3.72-7.42h1.93L720,309.26Z"/><path class="cls-1" d="M731.94,305a4.48,4.48,0,0,1-4.71,4.5,3.08,3.08,0,0,1-3.36-3.23,4.46,4.46,0,0,1,4.71-4.45A3,3,0,0,1,731.94,305Zm-1.77.24a1.72,1.72,0,0,0-1.87-1.85,2.59,2.59,0,0,0-2.66,2.66,1.75,1.75,0,0,0,1.88,1.87A2.59,2.59,0,0,0,730.17,305.27Z"/><path class="cls-1" d="M738.45,303.59a25.76,25.76,0,0,0-2.65.1l-1,5.57h-1.73l1.2-6.93a28.19,28.19,0,0,1,4.44-.44Z"/><path class="cls-1" d="M740.88,309.26h-1.74L741,298.61h1.74Z"/><path class="cls-1" d="M750.14,309.11a18.65,18.65,0,0,1-4.1.37,2.75,2.75,0,0,1-2.82-3.07,4.15,4.15,0,0,1,4.29-4.47,10.56,10.56,0,0,1,2.13.19l.62-3.52H752Zm-5.22-2.94a1.64,1.64,0,0,0,1.63,1.86,10.87,10.87,0,0,0,2.07-.15l.75-4.29a8.5,8.5,0,0,0-1.87-.2A2.5,2.5,0,0,0,744.92,306.17Z"/></svg>