<svg xmlns="http://www.w3.org/2000/svg" xmlns:xlink="http://www.w3.org/1999/xlink" version="1.1" x="0px" y="0px" viewBox="0 0 100 125" style="enable-background:new 0 0 100 100;" xml:space="preserve"><path d="M43.673,25.936v10.733H31.171c-0.553,0-1,0.448-1,1v10.322c0,0.552,0.447,1,1,1h12.502v25.073c0,0.552,0.447,1,1,1h10.321  c0.553,0,1-0.448,1-1V48.991h12.502c0.553,0,1-0.448,1-1V37.669c0-0.552-0.447-1-1-1H55.994V25.936c0-0.552-0.447-1-1-1H44.673  C44.12,24.936,43.673,25.384,43.673,25.936z M45.673,37.669V26.936h8.321v10.733c0,0.552,0.447,1,1,1h12.502v8.322H54.994  c-0.553,0-1,0.448-1,1v25.073h-8.321V47.991c0-0.552-0.447-1-1-1H32.171v-8.322h12.502C45.226,38.669,45.673,38.221,45.673,37.669z"/><path d="M51,18.864V11c0-0.552-0.447-1-1-1s-1,0.448-1,1v7.864c0,0.552,0.447,1,1,1S51,19.417,51,18.864z"/><path d="M27.716,25.46c0.197,0.232,0.478,0.351,0.76,0.351c0.23,0,0.461-0.079,0.649-0.24c0.42-0.359,0.47-0.99,0.111-1.41  l-5.438-6.362c-0.359-0.421-0.99-0.469-1.409-0.111c-0.42,0.359-0.47,0.99-0.11,1.41L27.716,25.46z"/><path d="M22.39,82.312c0.188,0.161,0.419,0.24,0.649,0.24c0.282,0,0.562-0.119,0.76-0.351l5.438-6.362  c0.358-0.419,0.309-1.051-0.111-1.41c-0.419-0.358-1.052-0.31-1.409,0.111l-5.437,6.362C21.92,81.322,21.97,81.953,22.39,82.312z"/><path d="M49,81.136V89c0,0.552,0.447,1,1,1s1-0.448,1-1v-7.864c0-0.552-0.447-1-1-1S49,80.583,49,81.136z"/><path d="M70.764,75.839l5.438,6.362c0.197,0.232,0.478,0.351,0.76,0.351c0.23,0,0.461-0.079,0.649-0.24  c0.42-0.359,0.47-0.99,0.11-1.41l-5.437-6.362c-0.358-0.421-0.989-0.469-1.409-0.111C70.455,74.788,70.405,75.419,70.764,75.839z"/><path d="M71.524,25.811c0.282,0,0.562-0.119,0.76-0.351l5.437-6.362c0.359-0.419,0.31-1.051-0.11-1.41  c-0.419-0.358-1.051-0.309-1.409,0.111l-5.438,6.362c-0.358,0.419-0.309,1.051,0.111,1.41  C71.063,25.732,71.294,25.811,71.524,25.811z"/><text x="0" y="115" fill="#000000" font-size="5px" font-weight="bold" font-family="'Helvetica Neue', Helvetica, Arial-Unicode, Arial, Sans-serif">Created by Made</text><text x="0" y="120" fill="#000000" font-size="5px" font-weight="bold" font-family="'Helvetica Neue', Helvetica, Arial-Unicode, Arial, Sans-serif">from the Noun Project</text></svg>